<svg id="OBJECTS" xmlns="http://www.w3.org/2000/svg" viewBox="0 0 500 500"><defs><style>.cls-1{fill:#e74c3c;}.cls-2{fill:#fec549;}.cls-3{fill:#d9493b;}.cls-4{fill:#5052ab;}.cls-5{fill:#5c5ec4;}.cls-6{fill:#f5b45e;}.cls-7{fill:#8ea4fd;}.cls-8{fill:none;stroke:#fec549;stroke-miterlimit:10;}</style></defs><title>Artboard 1</title><path class="cls-1" d="M386.86,518.86a6.51,6.51,0,0,1-4.61-11.12l64.54-64.55a4,4,0,1,0-5.61-5.62l-7.82,7.82a6.53,6.53,0,0,1-9.22,0h0a6.53,6.53,0,0,1,0-9.22l46.1-46.1a6.52,6.52,0,1,1,9.22,9.22L477.74,401a4,4,0,0,0,5.62,5.62l12.7-12.7a6.52,6.52,0,0,1,9.22,9.22L485.42,423a4,4,0,0,0,5.62,5.62l47-47a6.52,6.52,0,0,1,9.22,9.22L463,475.06a6.52,6.52,0,1,1-9.23-9.22l.67-.66a4,4,0,0,0-5.62-5.62L391.47,517A6.49,6.49,0,0,1,386.86,518.86ZM444,435.74a4.65,4.65,0,0,1,3.28,7.93l-64.55,64.54a5.85,5.85,0,1,0,8.27,8.27l57.39-57.39a4.65,4.65,0,0,1,6.57,6.57l-.66.66a5.84,5.84,0,0,0,8.27,8.26l84.23-84.23a5.84,5.84,0,0,0-8.27-8.26l-47,47a4.65,4.65,0,0,1-6.58-6.58l19.86-19.85a5.84,5.84,0,0,0-8.27-8.26l-12.7,12.7a4.65,4.65,0,0,1-6.57-6.58l1.72-1.72a5.84,5.84,0,0,0-8.26-8.26l-46.1,46.1a5.84,5.84,0,0,0,0,8.26h0a5.84,5.84,0,0,0,8.26,0l7.82-7.81A4.63,4.63,0,0,1,444,435.74Z"/><path class="cls-2" d="M388.64,375.18a7.19,7.19,0,0,1-5.09-12.28l93-93A7.2,7.2,0,0,1,488.81,275a7.12,7.12,0,0,1-2.11,5.08l-.73.74a4.38,4.38,0,0,0,6.2,6.2l63.35-63.36a7.2,7.2,0,0,1,10.18,10.18l-71.25,71.25a4.38,4.38,0,1,0,6.2,6.2l8.63-8.63a7.18,7.18,0,0,1,10.17,0h0a7.2,7.2,0,0,1,0,10.18l-50.88,50.88a7.2,7.2,0,0,1-10.18-10.18l1.9-1.9a4.38,4.38,0,0,0-6.2-6.19l-14,14a7.19,7.19,0,0,1-10.17-10.17l21.91-21.92a4.38,4.38,0,0,0-6.2-6.2l-51.88,51.89A7.2,7.2,0,0,1,388.64,375.18Zm93-106.61a6.46,6.46,0,0,0-4.56,1.88l-93,93a6.45,6.45,0,0,0,9.12,9.12l51.89-51.88a5.13,5.13,0,0,1,7.25,7.25l-21.92,21.91a6.46,6.46,0,0,0,9.13,9.13l14-14a5.13,5.13,0,0,1,7.25,7.25l-1.9,1.9a6.45,6.45,0,0,0,9.12,9.13l50.89-50.89a6.45,6.45,0,0,0-9.13-9.12l-8.62,8.62a5.13,5.13,0,0,1-7.26-7.25l71.25-71.25a6.45,6.45,0,0,0-9.12-9.12l-63.36,63.35a5.13,5.13,0,0,1-7.25-7.25l.73-.73a6.45,6.45,0,0,0-4.56-11Z"/><path class="cls-1" d="M568.34,300.24h0a6.81,6.81,0,0,0-9.65,0l-8.62,8.62a4.76,4.76,0,0,1-6.73,0h0a4.74,4.74,0,0,1,0-6.72l19.59-19.6a6.81,6.81,0,0,0,0-9.65h0a6.83,6.83,0,0,0-9.65,0l-11.69,11.7a4.76,4.76,0,0,1-6.73,0h0a4.74,4.74,0,0,1,0-6.72l.73-.74a6.81,6.81,0,0,0,0-9.65h0a6.83,6.83,0,0,0-9.65,0l-50.88,50.89a6.81,6.81,0,0,0,0,9.65h0a6.83,6.83,0,0,0,9.65,0l9.79-9.8a4.77,4.77,0,0,1,6.73,0h0a4.76,4.76,0,0,1,0,6.73l-48.34,48.33a6.84,6.84,0,0,0,0,9.66h0a6.83,6.83,0,0,0,9.65,0L503,342.49a4.77,4.77,0,0,1,6.73,0h0a4.76,4.76,0,0,1,0,6.73l-1.9,1.9a6.81,6.81,0,0,0,0,9.65h0a6.81,6.81,0,0,0,9.65,0l50.88-50.88A6.81,6.81,0,0,0,568.34,300.24Z"/><path class="cls-1" d="M500,378a7.23,7.23,0,1,1,0-10.23A7.22,7.22,0,0,1,500,378Z"/><path class="cls-1" d="M104.08,349.05h0a6.81,6.81,0,0,0-9.65,0L29.84,413.64a4.74,4.74,0,0,1-6.72,0h0a4.76,4.76,0,0,1,0-6.73l19.59-19.59a6.83,6.83,0,0,0,0-9.65h0a6.81,6.81,0,0,0-9.65,0l-11.7,11.7a4.77,4.77,0,0,1-6.73,0h0a4.77,4.77,0,0,1,0-6.73l.74-.73a6.83,6.83,0,0,0,0-9.65h0a6.81,6.81,0,0,0-9.65,0l-50.89,50.88a6.83,6.83,0,0,0,0,9.65h0a6.81,6.81,0,0,0,9.65,0l9.8-9.79A4.74,4.74,0,0,1-19,423h0a4.74,4.74,0,0,1,0,6.72l-48.33,48.34a6.81,6.81,0,0,0,0,9.65h0a6.83,6.83,0,0,0,9.65,0l40.44-40.44a4.74,4.74,0,0,1,6.72,0h0a4.76,4.76,0,0,1,0,6.73l-1.9,1.9a6.83,6.83,0,0,0,0,9.65h0a6.83,6.83,0,0,0,9.65,0L104.08,358.7A6.81,6.81,0,0,0,104.08,349.05Z"/><path class="cls-1" d="M55.72,374.89a7.23,7.23,0,1,1,0-10.23A7.22,7.22,0,0,1,55.72,374.89Z"/><path class="cls-3" d="M104.08,349.05a6.81,6.81,0,0,0-9.65,0L29.84,413.64a4.76,4.76,0,0,1-6.72-6.73l19.59-19.59a6.83,6.83,0,0,0,0-9.65h0a6.81,6.81,0,0,0-9.65,0l-11.7,11.7a4.72,4.72,0,0,1-3.53,1.38L-9.46,418a6.81,6.81,0,0,0,0,9.65,6.81,6.81,0,0,0,9.65,0L10,417.9a4.75,4.75,0,1,1,6.72,6.72L-4,445.39A6.81,6.81,0,0,0-4,455a6.83,6.83,0,0,0,9.65,0l12.87-12.87A4.75,4.75,0,0,1,22,440.78l82.08-82.08A6.81,6.81,0,0,0,104.08,349.05Z"/><path class="cls-4" d="M73.78,300.33h0a6.81,6.81,0,0,0-9.65,0L55.51,309a4.76,4.76,0,0,1-6.73,0h0a4.74,4.74,0,0,1,0-6.72l34.81-33.81a6.81,6.81,0,0,0,0-9.65h0a6.81,6.81,0,0,0-9.65,0L47,284.68a4.74,4.74,0,0,1-6.72,0h0a4.74,4.74,0,0,1,0-6.72L67.55,250.7a6.81,6.81,0,0,0,0-9.65h0a6.83,6.83,0,0,0-9.65,0L-78.28,377.24a6.81,6.81,0,0,0,0,9.65h0a6.83,6.83,0,0,0,9.65,0L-.06,318.31a4.77,4.77,0,0,1,6.73,0h0a4.76,4.76,0,0,1,0,6.73l-48.34,48.33a6.84,6.84,0,0,0,0,9.66h0A6.83,6.83,0,0,0-32,383L8.42,342.58a4.77,4.77,0,0,1,6.73,0h0a4.76,4.76,0,0,1,0,6.73l-1.9,1.9a6.81,6.81,0,0,0,0,9.65h0a6.81,6.81,0,0,0,9.65,0L73.78,310A6.81,6.81,0,0,0,73.78,300.33Z"/><circle class="cls-4" cx="0.34" cy="372.98" r="7.24"/><path class="cls-5" d="M73.78,300.33a6.81,6.81,0,0,0-9.65,0L55.51,309a4.76,4.76,0,1,1-6.73-6.72l34.81-33.81a6.81,6.81,0,0,0,0-9.65h0a6.81,6.81,0,0,0-9.65,0L47,284.68a4.75,4.75,0,0,1-3.53,1.39L16.2,313.36A6.82,6.82,0,0,0,25.85,323l9.8-9.8a4.76,4.76,0,0,1,6.73,6.73L21.61,340.7a6.82,6.82,0,0,0,9.65,9.65l12.87-12.87a4.72,4.72,0,0,1,3.53-1.38L73.78,310A6.81,6.81,0,0,0,73.78,300.33Z"/><path class="cls-4" d="M534.52,465.19h0a6.83,6.83,0,0,0-9.65,0l-8.62,8.63a4.76,4.76,0,0,1-6.73,0h0a4.74,4.74,0,0,1,0-6.72l45.81-45.82a6.81,6.81,0,0,0,0-9.65h0a6.83,6.83,0,0,0-9.65,0l-37.92,37.92a4.74,4.74,0,0,1-6.72,0h0a4.76,4.76,0,0,1,0-6.73l27.25-27.25a6.81,6.81,0,0,0,0-9.65h0a6.83,6.83,0,0,0-9.65,0L382.46,542.1a6.81,6.81,0,0,0,0,9.65h0a6.81,6.81,0,0,0,9.65,0l68.57-68.57a4.76,4.76,0,0,1,6.73,0h0a4.76,4.76,0,0,1,0,6.73l-48.34,48.33a6.83,6.83,0,0,0,0,9.65h0a6.81,6.81,0,0,0,9.65,0l40.44-40.44a4.76,4.76,0,0,1,6.73,0h0a4.76,4.76,0,0,1,0,6.73l-1.9,1.9a6.81,6.81,0,0,0,0,9.65h0a6.83,6.83,0,0,0,9.65,0l50.88-50.88A6.83,6.83,0,0,0,534.52,465.19Z"/><path class="cls-5" d="M534.52,465.19a6.83,6.83,0,0,0-9.65,0l-8.62,8.63a4.76,4.76,0,1,1-6.73-6.72l45.81-45.82a6.81,6.81,0,0,0,0-9.65h0a6.83,6.83,0,0,0-9.65,0l-37.92,37.92a4.7,4.7,0,0,1-3.53,1.38l-27.29,27.29a6.83,6.83,0,0,0,9.65,9.66l9.8-9.8a4.76,4.76,0,0,1,6.73,6.72l-20.77,20.77a6.82,6.82,0,0,0,9.65,9.65l12.87-12.87A4.72,4.72,0,0,1,508.4,501l26.12-26.12A6.83,6.83,0,0,0,534.52,465.19Z"/><path class="cls-2" d="M119,481h0a6.81,6.81,0,0,0-9.65,0l-8.62,8.63a4.77,4.77,0,0,1-6.73,0h0a4.76,4.76,0,0,1,0-6.73l45.81-45.81a6.81,6.81,0,0,0,0-9.65h0a6.81,6.81,0,0,0-9.65,0L92.26,465.32a4.76,4.76,0,0,1-6.73,0h0a4.74,4.74,0,0,1,0-6.72l17.09-17.09a6.83,6.83,0,0,0,0-9.65h0a6.81,6.81,0,0,0-9.65,0l-126,126a6.81,6.81,0,0,0,0,9.65h0a6.83,6.83,0,0,0,9.65,0L45.17,499a4.77,4.77,0,0,1,6.73,0h0a4.76,4.76,0,0,1,0,6.73L3.56,554a6.83,6.83,0,0,0,0,9.65h0a6.83,6.83,0,0,0,9.65,0l40.44-40.44a4.76,4.76,0,0,1,6.73,0h0a4.74,4.74,0,0,1,0,6.72l-1.9,1.9a6.81,6.81,0,0,0,0,9.65h0a6.81,6.81,0,0,0,9.65,0L119,490.62A6.81,6.81,0,0,0,119,481Z"/><path class="cls-6" d="M152.84,424.63a7.24,7.24,0,1,1,0-10.24A7.24,7.24,0,0,1,152.84,424.63Z"/><path class="cls-6" d="M119,481a6.81,6.81,0,0,0-9.65,0l-8.62,8.63A4.76,4.76,0,0,1,94,482.87l45.81-45.81a6.81,6.81,0,0,0,0-9.65h0a6.81,6.81,0,0,0-9.65,0L92.26,465.32a4.75,4.75,0,0,1-3.54,1.39L61.43,494a6.82,6.82,0,1,0,9.65,9.65l9.8-9.8a4.76,4.76,0,0,1,6.73,6.73L66.84,521.34A6.82,6.82,0,0,0,76.49,531l12.87-12.86a4.73,4.73,0,0,1,3.53-1.39L119,490.62A6.81,6.81,0,0,0,119,481Z"/><circle class="cls-6" cx="469.41" cy="394.55" r="7.24"/><path class="cls-6" d="M440.71,456a6.81,6.81,0,0,0-9.65,0l-8.63,8.62a4.76,4.76,0,0,1-6.73-6.72l45.82-45.81a6.83,6.83,0,0,0,0-9.65h0a6.81,6.81,0,0,0-9.65,0L414,440.36a4.77,4.77,0,0,1-3.53,1.39L383.13,469a6.82,6.82,0,0,0,9.65,9.65l9.79-9.8a4.76,4.76,0,0,1,6.73,6.73l-20.76,20.76a6.82,6.82,0,0,0,9.65,9.65l12.86-12.87a4.74,4.74,0,0,1,3.54-1.38l26.12-26.12A6.83,6.83,0,0,0,440.71,456Z"/><path class="cls-1" d="M416.14,379.28h-2.81v-2.81a1.41,1.41,0,1,0-2.81,0v2.81H407.7a1.41,1.41,0,0,0,0,2.82h2.82v2.81a1.41,1.41,0,0,0,2.81,0V382.1h2.81a1.41,1.41,0,1,0,0-2.82Z"/><path class="cls-1" d="M15.42,389.73H12.6v-2.81a1.41,1.41,0,1,0-2.81,0v2.81H7a1.41,1.41,0,1,0,0,2.81H9.79v2.82a1.41,1.41,0,0,0,2.81,0v-2.82h2.82a1.41,1.41,0,0,0,0-2.81Z"/><path class="cls-1" d="M68.33,407.28H65.52v-2.81a1.41,1.41,0,1,0-2.82,0v2.81H59.89a1.41,1.41,0,1,0,0,2.82H62.7v2.81a1.41,1.41,0,0,0,2.82,0V410.1h2.81a1.41,1.41,0,0,0,0-2.82Z"/><path class="cls-2" d="M97.68,394.77H94.87V392a1.41,1.41,0,1,0-2.82,0v2.81H89.24a1.41,1.41,0,0,0,0,2.81h2.81v2.81a1.41,1.41,0,0,0,2.82,0v-2.81h2.81a1.41,1.41,0,0,0,0-2.81Z"/><path class="cls-1" d="M468.33,434.1h-2.81v-2.82a1.41,1.41,0,0,0-2.82,0v2.82h-2.81a1.41,1.41,0,1,0,0,2.81h2.81v2.81a1.41,1.41,0,1,0,2.82,0v-2.81h2.81a1.41,1.41,0,0,0,0-2.81Z"/><path class="cls-4" d="M72.17,444.9H69.36v-2.81a1.41,1.41,0,1,0-2.81,0v2.81H63.74a1.41,1.41,0,1,0,0,2.81h2.81v2.82a1.41,1.41,0,0,0,2.81,0v-2.82h2.81a1.41,1.41,0,1,0,0-2.81Z"/><path class="cls-2" d="M11.49,301.71H8.67V298.9a1.41,1.41,0,0,0-2.81,0v2.81H3.05a1.41,1.41,0,0,0,0,2.82H5.86v2.81a1.41,1.41,0,1,0,2.81,0v-2.81h2.82a1.41,1.41,0,0,0,0-2.82Z"/><path class="cls-4" d="M474,301.1h-2.81v-2.82a1.41,1.41,0,0,0-2.81,0v2.82h-2.81a1.41,1.41,0,1,0,0,2.81h2.81v2.81a1.41,1.41,0,1,0,2.81,0v-2.81H474a1.41,1.41,0,1,0,0-2.81Z"/><path class="cls-7" d="M143.71,468.89h0a13.53,13.53,0,0,1-2-.15l.12-.74a12,12,0,0,0,1.9.15Zm2-.16-.12-.73a13.39,13.39,0,0,0,1.87-.45l.23.71A12.14,12.14,0,0,1,145.75,468.73Zm-6.05-.47a12.52,12.52,0,0,1-1.89-.78l.34-.66a11.48,11.48,0,0,0,1.78.73Zm9.92-.79-.34-.66a11.36,11.36,0,0,0,1.63-1l.44.6A13.43,13.43,0,0,1,149.62,467.47Zm-13.55-1.05a14,14,0,0,1-1.55-1.32l.52-.53a13.48,13.48,0,0,0,1.47,1.25Zm16.83-1.34-.52-.53a12.49,12.49,0,0,0,1.25-1.46l.6.44A13.1,13.1,0,0,1,152.9,465.08Zm-19.71-1.53a13.54,13.54,0,0,1-1.07-1.74l.66-.34a12,12,0,0,0,1,1.64Zm22.11-1.76-.67-.34a13.11,13.11,0,0,0,.74-1.78l.71.23A13.43,13.43,0,0,1,155.3,461.79Zm-24-1.86a13.73,13.73,0,0,1-.48-2l.74-.11a12.12,12.12,0,0,0,.45,1.87Zm25.22-2-.73-.12a13.67,13.67,0,0,0,.14-1.92l.75-.05v.05A12.66,12.66,0,0,1,156.55,457.92Zm-25.86-2v0a12.17,12.17,0,0,1,.16-2l.73.11a13.25,13.25,0,0,0-.14,1.89Zm25.12-2a11.61,11.61,0,0,0-.46-1.87l.71-.23a13,13,0,0,1,.48,2ZM132,452.12l-.71-.23a13.38,13.38,0,0,1,.77-1.89l.67.34A11.48,11.48,0,0,0,132,452.12Zm22.58-1.85a12.58,12.58,0,0,0-1-1.63l.6-.44a13.43,13.43,0,0,1,1.07,1.73Zm-20.85-1.57-.6-.44a13,13,0,0,1,1.32-1.55l.53.52A13.48,13.48,0,0,0,133.76,448.7Zm18.58-1.52a11.53,11.53,0,0,0-1.46-1.24l.43-.61a14.13,14.13,0,0,1,1.56,1.32ZM136.47,446l-.44-.6a12.78,12.78,0,0,1,1.73-1.07l.34.66A11.36,11.36,0,0,0,136.47,446Zm12.76-1a11.48,11.48,0,0,0-1.78-.73l.23-.71a11.89,11.89,0,0,1,1.89.77Zm-9.35-.71-.24-.71a13.73,13.73,0,0,1,2-.48l.12.74A11.59,11.59,0,0,0,139.88,444.23Zm5.7-.47a13,13,0,0,0-1.88-.14l0-.74h0a13.36,13.36,0,0,1,2,.15Z"/><path class="cls-7" d="M1.09,443.93v-.75a6,6,0,0,0,1.83-.29l.23.71A6.83,6.83,0,0,1,1.09,443.93ZM-1,443.61a6.93,6.93,0,0,1-1.86-.94l.44-.61a5.72,5.72,0,0,0,1.65.84Zm6-1-.44-.6a5.82,5.82,0,0,0,1.31-1.31l.61.43A6.5,6.5,0,0,1,5,442.64Zm-9.33-1.45a6.52,6.52,0,0,1-1-1.85l.7-.24a6,6,0,0,0,.86,1.65ZM7.44,439.3l-.71-.23A6,6,0,0,0,7,437.24l.74-.08v.08A6.82,6.82,0,0,1,7.44,439.3Zm-12.86-2h-.2a6.59,6.59,0,0,1,.31-2l.71.22a6.15,6.15,0,0,0-.27,1.81Zm12.13-1.92a5.8,5.8,0,0,0-.87-1.65l.6-.44a6.42,6.42,0,0,1,1,1.85Zm-10.47-1.56-.61-.44a6.7,6.7,0,0,1,1.47-1.49l.44.6A5.86,5.86,0,0,0-3.76,433.78Zm8.28-1.39a6.15,6.15,0,0,0-1.66-.83l.22-.71a6.57,6.57,0,0,1,1.87.94Zm-5.33-.79-.24-.71A6.54,6.54,0,0,1,1,430.55v.74A6,6,0,0,0-.81,431.6Z"/><path class="cls-4" d="M63.93,287.52v-.75a6,6,0,0,0,1.84-.29l.23.71A6.83,6.83,0,0,1,63.93,287.52Zm-2.07-.32a6.78,6.78,0,0,1-1.86-.94l.43-.61a5.9,5.9,0,0,0,1.66.84Zm6-1-.44-.6a6.26,6.26,0,0,0,1.31-1.31l.6.43A6.45,6.45,0,0,1,67.85,286.23Zm-9.34-1.45a6.78,6.78,0,0,1-1-1.85l.71-.24a6,6,0,0,0,.85,1.65Zm11.76-1.89-.71-.23a5.7,5.7,0,0,0,.29-1.83l.75-.08v.08A6.53,6.53,0,0,1,70.27,282.89Zm-12.85-2h-.2a6.59,6.59,0,0,1,.31-2l.71.22a6.16,6.16,0,0,0-.28,1.81Zm12.12-1.92a6,6,0,0,0-.86-1.65l.6-.44a6.67,6.67,0,0,1,1,1.85Zm-10.47-1.56-.6-.44a6.88,6.88,0,0,1,1.46-1.49l.45.6A6.12,6.12,0,0,0,59.07,277.37ZM67.35,276a6,6,0,0,0-1.66-.83l.23-.71a7.11,7.11,0,0,1,1.87.93ZM62,275.19l-.23-.71a6.54,6.54,0,0,1,2.06-.34v.74A6,6,0,0,0,62,275.19Z"/><path class="cls-4" d="M122.88,406v-.74a6,6,0,0,0,1.83-.3l.23.71A6.53,6.53,0,0,1,122.88,406Zm-2.07-.32a6.65,6.65,0,0,1-1.86-.94l.43-.6a6.15,6.15,0,0,0,1.66.83Zm6-1-.44-.6a6.07,6.07,0,0,0,1.31-1.32l.61.44A6.92,6.92,0,0,1,126.8,404.67Zm-9.34-1.45a7.13,7.13,0,0,1-1-1.86l.71-.23a6.15,6.15,0,0,0,.85,1.65Zm11.76-1.9-.7-.22a6,6,0,0,0,.28-1.84l.75-.08v.08A6.49,6.49,0,0,1,129.22,401.32Zm-12.85-2h-.2a6.7,6.7,0,0,1,.31-2l.71.23a6.1,6.1,0,0,0-.28,1.8Zm12.12-1.93a6,6,0,0,0-.86-1.64l.6-.45a6.68,6.68,0,0,1,1,1.85ZM118,395.8l-.6-.44a6.45,6.45,0,0,1,1.47-1.48l.44.6A6.07,6.07,0,0,0,118,395.8Zm8.29-1.38a5.55,5.55,0,0,0-1.67-.83l.23-.71a6.68,6.68,0,0,1,1.87.93Zm-5.33-.8-.24-.71a6.84,6.84,0,0,1,2.06-.34v.75A5.62,5.62,0,0,0,121,393.62Z"/><path class="cls-4" d="M433.79,380.83h0a5.32,5.32,0,0,1-2-.41l.28-.69a4.66,4.66,0,0,0,1.77.35Zm2.06-.42-.28-.69a4.46,4.46,0,0,0,1.5-1l.53.53A5.33,5.33,0,0,1,435.85,380.41ZM430,379.26a5.2,5.2,0,0,1-1.18-1.75l.68-.28a4.64,4.64,0,0,0,1,1.5Zm8.8-1.77-.69-.29a4.67,4.67,0,0,0,.35-1.78l.54,0,.21,0A5.48,5.48,0,0,1,438.77,377.49Zm-10.24-2.05h-.16a5.28,5.28,0,0,1,.39-2.06l.69.28a4.79,4.79,0,0,0-.34,1.76Zm9.53-1.85a4.67,4.67,0,0,0-1-1.5l.53-.53a5.26,5.26,0,0,1,1.18,1.74Zm-7.61-1.44-.53-.53a5.58,5.58,0,0,1,1.74-1.18l.29.69A4.64,4.64,0,0,0,430.45,372.15Zm5.07-1a4.58,4.58,0,0,0-1.75-.34l0-.53,0-.22h0a5.44,5.44,0,0,1,2,.39Z"/><path class="cls-4" d="M421.81,307.19h0a5.31,5.31,0,0,1-2.05-.4l.28-.69a4.66,4.66,0,0,0,1.77.35Zm2.07-.41-.29-.69a4.82,4.82,0,0,0,1.51-1l.53.52A5.57,5.57,0,0,1,423.88,306.78ZM418,305.62a5.42,5.42,0,0,1-1.18-1.74l.69-.29a4.69,4.69,0,0,0,1,1.51Zm8.81-1.77-.69-.28a4.74,4.74,0,0,0,.35-1.78l.53-.05.21,0A5.24,5.24,0,0,1,426.8,303.85Zm-10.41-2v0a5.23,5.23,0,0,1,.4-2l.69.28a4.6,4.6,0,0,0-.34,1.76Zm9.7-1.86a5,5,0,0,0-1-1.5l.52-.53a5.45,5.45,0,0,1,1.19,1.74Zm-7.61-1.44L418,298a5.16,5.16,0,0,1,1.74-1.18l.29.68A4.64,4.64,0,0,0,418.48,298.51Zm5.06-1.05a4.69,4.69,0,0,0-1.74-.34l-.05-.74h.05a5.34,5.34,0,0,1,2,.39Z"/><path class="cls-1" d="M436.44,406.43a9.42,9.42,0,0,1-1.06-.06l.09-.74a8,8,0,0,0,2,0l.09.74A9.64,9.64,0,0,1,436.44,406.43Zm-3.14-.57a8.59,8.59,0,0,1-1.9-1l.42-.62a8.28,8.28,0,0,0,1.74.92Zm6.31,0-.27-.69a8.28,8.28,0,0,0,1.74-.92l.42.61A8.78,8.78,0,0,1,439.61,405.85Zm-9.82-2.4a8.79,8.79,0,0,1-1.22-1.76l.66-.35a7.74,7.74,0,0,0,1.12,1.61Zm13.32,0-.56-.49a8.16,8.16,0,0,0,1.11-1.62l.66.35A9.17,9.17,0,0,1,443.11,403.43Zm-15.31-3.74a9,9,0,0,1-.26-2.13h.75a8,8,0,0,0,.24,1.95Zm17.28,0-.72-.18a7.94,7.94,0,0,0,.23-2l.55,0h.2A9,9,0,0,1,445.08,399.66Zm-16.57-4.05-.72-.18a8.57,8.57,0,0,1,.76-2l.66.35A8,8,0,0,0,428.51,395.61Zm15.84-.07a8.24,8.24,0,0,0-.71-1.84l.66-.35a8.6,8.6,0,0,1,.77,2Zm-14-3.39-.56-.49a8.71,8.71,0,0,1,1.6-1.43l.42.61A7.57,7.57,0,0,0,430.32,392.15Zm12.2,0a8.31,8.31,0,0,0-1.48-1.3l.42-.62a9.47,9.47,0,0,1,1.61,1.42Zm-9-2.18-.27-.7a9.32,9.32,0,0,1,2.08-.52l.09.74A7.79,7.79,0,0,0,433.52,389.92Zm5.78,0a8.45,8.45,0,0,0-1.91-.46l.08-.74a8.75,8.75,0,0,1,2.09.51Z"/><path class="cls-7" d="M87,327.1v-.74a5.71,5.71,0,0,0,1.83-.3l.23.71A6.53,6.53,0,0,1,87,327.1Zm-2.07-.32a6.65,6.65,0,0,1-1.86-.94l.44-.6a6,6,0,0,0,1.65.83Zm6-1-.44-.6a5.66,5.66,0,0,0,1.31-1.32l.61.44A6.7,6.7,0,0,1,90.88,325.82Zm-9.33-1.45a6.57,6.57,0,0,1-1-1.86l.7-.23a6,6,0,0,0,.86,1.65Zm11.76-1.89-.71-.23a6,6,0,0,0,.29-1.84l.74-.08v.08A6.89,6.89,0,0,1,93.31,322.48Zm-12.86-2h-.2a6.59,6.59,0,0,1,.31-2l.71.22a6.1,6.1,0,0,0-.28,1.8Zm12.13-1.93a5.75,5.75,0,0,0-.87-1.64l.6-.45a6.68,6.68,0,0,1,1,1.85ZM82.11,317l-.61-.43A6.7,6.7,0,0,1,83,315l.44.6A5.82,5.82,0,0,0,82.11,317Zm8.28-1.38a6.15,6.15,0,0,0-1.66-.83L89,314a6.54,6.54,0,0,1,1.87.93Zm-5.33-.8-.24-.71a6.84,6.84,0,0,1,2.06-.34v.75A5.66,5.66,0,0,0,85.06,314.77Z"/><path class="cls-8" d="M84.76,571.93a7.19,7.19,0,0,1-5.09-12.28l93-93a7.2,7.2,0,1,1,10.18,10.18l-.73.73a4.38,4.38,0,0,0,6.2,6.2l63.35-63.35a7.19,7.19,0,1,1,10.18,10.17l-71.25,71.25a4.38,4.38,0,1,0,6.2,6.2l8.63-8.63a7.21,7.21,0,0,1,10.17,0h0a7.2,7.2,0,0,1,0,10.18l-50.88,50.89a7.2,7.2,0,0,1-10.18-10.18l1.9-1.9a4.38,4.38,0,1,0-6.2-6.2l-14,14A7.19,7.19,0,1,1,126,546.05l21.91-21.91a4.38,4.38,0,1,0-6.2-6.2L89.85,569.82A7.17,7.17,0,0,1,84.76,571.93Z"/><path class="cls-8" d="M177.73,465.31a6.43,6.43,0,0,0-4.56,1.89l-93,93a6.45,6.45,0,0,0,9.12,9.13l51.89-51.89a5.13,5.13,0,0,1,7.25,7.25l-21.92,21.92a6.45,6.45,0,1,0,9.13,9.12l14-14a5.13,5.13,0,1,1,7.25,7.26l-1.9,1.9a6.45,6.45,0,1,0,9.12,9.12l50.89-50.89a6.45,6.45,0,0,0-9.13-9.12l-8.62,8.63a5.13,5.13,0,0,1-7.26-7.25l71.25-71.25a6.45,6.45,0,1,0-9.12-9.13l-63.35,63.36a5.13,5.13,0,0,1-7.26-7.26l.73-.73a6.45,6.45,0,0,0-4.56-11Z"/><path class="cls-4" d="M170.07,497.84h-2.81V495a1.41,1.41,0,1,0-2.81,0v2.81h-2.81a1.41,1.41,0,1,0,0,2.81h2.81v2.81a1.41,1.41,0,1,0,2.81,0v-2.81h2.81a1.41,1.41,0,1,0,0-2.81Z"/><path class="cls-4" d="M117.93,503.94h0a5.32,5.32,0,0,1-2-.41l.28-.69a4.66,4.66,0,0,0,1.77.35Zm2.07-.42-.29-.69a4.5,4.5,0,0,0,1.51-1l.53.53A5.54,5.54,0,0,1,120,503.52Zm-5.89-1.15a5.46,5.46,0,0,1-1.18-1.75l.69-.28a4.75,4.75,0,0,0,1,1.5Zm8.81-1.77-.69-.29a4.71,4.71,0,0,0,.35-1.78l.53,0,.21,0A5.29,5.29,0,0,1,122.92,500.6Zm-10.41-2v0a5.26,5.26,0,0,1,.4-2l.69.28a4.6,4.6,0,0,0-.34,1.76Zm9.7-1.86a4.57,4.57,0,0,0-1-1.5l.52-.53a5.41,5.41,0,0,1,1.19,1.73Zm-7.61-1.44-.53-.53a5.47,5.47,0,0,1,1.74-1.18l.29.69A4.49,4.49,0,0,0,114.6,495.26Zm5.06-1.06a4.68,4.68,0,0,0-1.74-.33l0-.75h0a5.34,5.34,0,0,1,2,.39Z"/><path class="cls-2" d="M444.38,182.6a7.2,7.2,0,0,1-5.09-12.28l93-93a7.2,7.2,0,0,1,10.18,10.18l-.74.73a4.38,4.38,0,1,0,6.2,6.2L611.27,31.1a7.19,7.19,0,1,1,10.17,10.18l-71.25,71.25a4.38,4.38,0,1,0,6.2,6.19L565,110.1a7.19,7.19,0,0,1,10.18,0h0a7.22,7.22,0,0,1,0,10.18l-50.89,50.88A7.19,7.19,0,1,1,514.14,161l1.9-1.9a4.38,4.38,0,0,0-6.2-6.2l-14,14a7.2,7.2,0,1,1-10.18-10.18l21.92-21.91a4.38,4.38,0,1,0-6.2-6.2L449.47,180.5A7.15,7.15,0,0,1,444.38,182.6ZM537.36,76a6.42,6.42,0,0,0-4.57,1.88l-93,93a6.45,6.45,0,1,0,9.12,9.12l51.89-51.89a5.13,5.13,0,1,1,7.25,7.26l-21.91,21.91a6.45,6.45,0,1,0,9.12,9.12l14-14a5.13,5.13,0,0,1,7.25,7.25l-1.9,1.9a6.45,6.45,0,1,0,9.13,9.12l50.88-50.88a6.45,6.45,0,0,0,0-9.12h0a6.45,6.45,0,0,0-9.12,0l-8.63,8.62a5.13,5.13,0,0,1-7.25-7.25l71.25-71.25a6.45,6.45,0,1,0-9.13-9.12L548.44,95a5.13,5.13,0,1,1-7.25-7.25l.73-.73a6.45,6.45,0,0,0-4.56-11Z"/><path class="cls-1" d="M572.39,45.46h0a6.83,6.83,0,0,0-9.65,0l-64.59,64.6a4.76,4.76,0,0,1-6.72,0h0a4.76,4.76,0,0,1,0-6.73L511,83.74a6.83,6.83,0,0,0,0-9.65h0a6.81,6.81,0,0,0-9.65,0l-11.7,11.69a4.76,4.76,0,0,1-6.73,0h0a4.76,4.76,0,0,1,0-6.72l.74-.73a6.83,6.83,0,0,0,0-9.65h0a6.81,6.81,0,0,0-9.65,0l-50.89,50.88a6.83,6.83,0,0,0,0,9.65h0a6.83,6.83,0,0,0,9.65,0l9.8-9.8a4.76,4.76,0,0,1,6.72,0h0a4.76,4.76,0,0,1,0,6.73L401,174.48a6.81,6.81,0,0,0,0,9.65h0a6.83,6.83,0,0,0,9.65,0l40.44-40.44a4.76,4.76,0,0,1,6.73,0h0a4.76,4.76,0,0,1,0,6.72l-1.91,1.9a6.83,6.83,0,0,0,0,9.65h0a6.81,6.81,0,0,0,9.65,0L572.39,55.11A6.81,6.81,0,0,0,572.39,45.46Z"/><circle class="cls-1" cx="442.99" cy="174.08" r="7.24"/><path class="cls-3" d="M572.39,45.46a6.83,6.83,0,0,0-9.65,0l-64.59,64.6a4.76,4.76,0,1,1-6.72-6.73L511,83.74a6.83,6.83,0,0,0,0-9.65h0a6.81,6.81,0,0,0-9.65,0l-11.7,11.69a4.77,4.77,0,0,1-3.53,1.39l-27.29,27.29a6.82,6.82,0,0,0,9.65,9.65l9.8-9.8A4.76,4.76,0,0,1,485,121L464.26,141.8a6.82,6.82,0,0,0,9.65,9.65l12.87-12.87a4.72,4.72,0,0,1,3.53-1.38l82.08-82.09A6.81,6.81,0,0,0,572.39,45.46Z"/><path class="cls-4" d="M542.09-3.26h0a6.83,6.83,0,0,0-9.65,0l-8.62,8.63a4.76,4.76,0,0,1-6.73,0h0a4.76,4.76,0,0,1,0-6.73L562.9-47.17a6.81,6.81,0,0,0,0-9.65h0a6.83,6.83,0,0,0-9.65,0L515.34-18.9a4.76,4.76,0,0,1-6.73,0h0a4.76,4.76,0,0,1,0-6.73l27.25-27.25a6.81,6.81,0,0,0,0-9.65h0a6.83,6.83,0,0,0-9.65,0L390,73.65a6.81,6.81,0,0,0,0,9.65h0a6.81,6.81,0,0,0,9.65,0l68.57-68.57a4.76,4.76,0,0,1,6.73,0h0a4.74,4.74,0,0,1,0,6.72L426.64,69.79a6.83,6.83,0,0,0,0,9.65h0a6.81,6.81,0,0,0,9.65,0L476.73,39a4.76,4.76,0,0,1,6.73,0h0a4.76,4.76,0,0,1,0,6.73l-1.9,1.9a6.81,6.81,0,0,0,0,9.65h0a6.83,6.83,0,0,0,9.65,0L542.09,6.39A6.81,6.81,0,0,0,542.09-3.26Z"/><circle class="cls-4" cx="468.65" cy="69.4" r="7.24"/><path class="cls-5" d="M542.09-3.26a6.83,6.83,0,0,0-9.65,0l-8.62,8.63a4.76,4.76,0,0,1-6.73-6.73L562.9-47.17a6.81,6.81,0,0,0,0-9.65h0a6.83,6.83,0,0,0-9.65,0L515.34-18.9a4.74,4.74,0,0,1-3.54,1.38L484.51,9.77a6.82,6.82,0,0,0,9.65,9.65L504,9.63a4.76,4.76,0,0,1,6.73,6.72L489.92,37.12a6.82,6.82,0,0,0,9.65,9.65L512.44,33.9A4.72,4.72,0,0,1,516,32.52L542.09,6.39A6.81,6.81,0,0,0,542.09-3.26Z"/><path class="cls-2" d="M587.32,177.39h0a6.81,6.81,0,0,0-9.65,0L569.05,186a4.76,4.76,0,0,1-6.73,0h0a4.74,4.74,0,0,1,0-6.72l45.81-45.82a6.81,6.81,0,0,0,0-9.65h0a6.83,6.83,0,0,0-9.65,0l-37.91,37.92a4.76,4.76,0,0,1-6.73,0h0a4.76,4.76,0,0,1,0-6.73l17.09-17.09a6.83,6.83,0,0,0,0-9.65h0a6.83,6.83,0,0,0-9.65,0l-126,126a6.83,6.83,0,0,0,0,9.66h0a6.83,6.83,0,0,0,9.65,0l68.57-68.58a4.76,4.76,0,0,1,6.73,0h0a4.76,4.76,0,0,1,0,6.73l-48.34,48.33a6.83,6.83,0,0,0,0,9.65h0a6.81,6.81,0,0,0,9.65,0L522,219.64a4.77,4.77,0,0,1,6.73,0h0a4.76,4.76,0,0,1,0,6.73l-1.9,1.9a6.81,6.81,0,0,0,0,9.65h0a6.81,6.81,0,0,0,9.65,0L587.32,187A6.81,6.81,0,0,0,587.32,177.39Z"/><path class="cls-2" d="M391.4,127.48a7.19,7.19,0,0,1-5.09-12.28l93-93A7.2,7.2,0,1,1,489.46,32.4l-.73.73a4.38,4.38,0,0,0,6.2,6.2L558.28-24a7.2,7.2,0,0,1,10.18,0,7.22,7.22,0,0,1,0,10.18L497.21,57.41a4.38,4.38,0,1,0,6.2,6.19L512,55a7.2,7.2,0,1,1,10.18,10.18L471.33,116a7.2,7.2,0,0,1-10.18-10.18l1.9-1.9a4.38,4.38,0,1,0-6.2-6.2l-14,14a7.19,7.19,0,0,1-10.17-10.18l21.91-21.91a4.38,4.38,0,1,0-6.2-6.2l-51.88,51.89A7.15,7.15,0,0,1,391.4,127.48Zm93-106.62a6.41,6.41,0,0,0-4.56,1.89l-93,93a6.45,6.45,0,0,0,9.13,9.12L447.84,73a5.13,5.13,0,0,1,7.26,7.26l-21.92,21.91a6.45,6.45,0,0,0,9.13,9.12l14-14a5.14,5.14,0,0,1,7.26,0,5.13,5.13,0,0,1,0,7.25l-1.9,1.9a6.45,6.45,0,1,0,9.12,9.12l50.89-50.88a6.46,6.46,0,0,0-9.13-9.13l-8.62,8.63a5.13,5.13,0,0,1-7.26-7.25l71.25-71.25a6.45,6.45,0,0,0,0-9.12,6.45,6.45,0,0,0-9.12,0L495.45,39.86a5.13,5.13,0,0,1-7.25-7.25l.73-.74a6.45,6.45,0,0,0-4.56-11Z"/><path class="cls-1" d="M483.73,86.15h-2.81V83.34a1.41,1.41,0,0,0-2.82,0v2.81h-2.81a1.41,1.41,0,1,0,0,2.81h2.81v2.81a1.41,1.41,0,0,0,2.82,0V89h2.81a1.41,1.41,0,0,0,0-2.81Z"/><path class="cls-2" d="M479.8-1.87H477V-4.68a1.4,1.4,0,0,0-1.4-1.41,1.41,1.41,0,0,0-1.41,1.41v2.81h-2.81A1.41,1.41,0,0,0,470-.46a1.41,1.41,0,0,0,1.41,1.4h2.81V3.76a1.41,1.41,0,0,0,2.81,0V.94h2.82a1.4,1.4,0,0,0,1.4-1.4A1.41,1.41,0,0,0,479.8-1.87Z"/><path class="cls-7" d="M469.4,140.34v-.74a5.71,5.71,0,0,0,1.83-.3l.23.71A6.49,6.49,0,0,1,469.4,140.34Zm-2.07-.31a7,7,0,0,1-1.86-.95l.44-.6a6,6,0,0,0,1.65.84Zm6-1-.44-.6a5.66,5.66,0,0,0,1.31-1.32l.61.44A6.5,6.5,0,0,1,473.32,139.06ZM464,137.61a6.57,6.57,0,0,1-1-1.86l.7-.23a6,6,0,0,0,.86,1.65Zm11.76-1.89-.71-.23a6,6,0,0,0,.29-1.84l.74-.08v.08A6.89,6.89,0,0,1,475.75,135.72Zm-12.86-2h-.2a6.9,6.9,0,0,1,.31-2l.71.22a6.09,6.09,0,0,0-.27,1.8ZM475,131.75a5.75,5.75,0,0,0-.87-1.64l.6-.45a6.68,6.68,0,0,1,1,1.85Zm-10.47-1.56-.61-.43a6.7,6.7,0,0,1,1.47-1.49l.44.6A5.82,5.82,0,0,0,464.55,130.19Zm8.28-1.38a6.15,6.15,0,0,0-1.66-.83l.22-.71a6.54,6.54,0,0,1,1.87.93Zm-5.33-.8-.24-.71a6.89,6.89,0,0,1,2.06-.34v.75A6,6,0,0,0,467.5,128Z"/><path class="cls-1" d="M-32,218.61a6.5,6.5,0,0,1-4.61-1.91,6.48,6.48,0,0,1-1.91-4.61,6.48,6.48,0,0,1,1.91-4.61L28,142.93a4,4,0,0,0-5.62-5.61l-7.81,7.81a6.53,6.53,0,0,1-9.22,0h0a6.51,6.51,0,0,1,0-9.22L51.4,89.81A6.52,6.52,0,1,1,60.62,99l-1.72,1.72a4,4,0,0,0,5.62,5.62l12.7-12.7a6.52,6.52,0,0,1,9.22,9.22L66.59,122.74a4,4,0,0,0,0,5.62,4,4,0,0,0,5.61,0l47-47a6.52,6.52,0,0,1,9.22,9.22L44.2,174.8A6.52,6.52,0,0,1,35,165.58l.66-.66A4,4,0,0,0,30,159.31L-27.37,216.7A6.5,6.5,0,0,1-32,218.61Zm57.13-83.13a4.64,4.64,0,0,1,3.28,7.93L-36.11,208a5.78,5.78,0,0,0-1.72,4.13,5.78,5.78,0,0,0,1.72,4.13,5.84,5.84,0,0,0,8.26,0l57.4-57.39a4.65,4.65,0,1,1,6.57,6.57l-.66.66a5.84,5.84,0,0,0,8.26,8.27L128,90.1a5.85,5.85,0,0,0-8.27-8.27l-47,47a4.65,4.65,0,0,1-6.57-6.57L86,102.41a5.84,5.84,0,0,0-8.26-8.26L65,106.85a4.65,4.65,0,1,1-6.58-6.57l1.73-1.73a5.84,5.84,0,0,0-8.27-8.26l-46.1,46.1a5.84,5.84,0,0,0,0,8.26h0a5.85,5.85,0,0,0,8.27,0l7.81-7.81A4.63,4.63,0,0,1,25.15,135.48Z"/><path class="cls-2" d="M-30.2,74.93a7.21,7.21,0,0,1-5.09-2.11,7.16,7.16,0,0,1-2.11-5.09,7.16,7.16,0,0,1,2.11-5.09l93-93a7.19,7.19,0,0,1,10.17,0A7.16,7.16,0,0,1,70-25.24a7.16,7.16,0,0,1-2.11,5.09l-.73.73a4.39,4.39,0,0,0,0,6.2,4.39,4.39,0,0,0,6.2,0l63.35-63.36a7.22,7.22,0,0,1,10.18,0,7.2,7.2,0,0,1,0,10.18L75.61,4.85a4.38,4.38,0,0,0,6.2,6.2l8.63-8.63a7.19,7.19,0,0,1,10.18,0h0a7.22,7.22,0,0,1,0,10.18L49.73,63.49A7.2,7.2,0,0,1,39.55,53.31l1.91-1.9a4.38,4.38,0,0,0-6.2-6.2l-14,14A7.2,7.2,0,1,1,11.06,49.05L33,27.13a4.38,4.38,0,0,0-6.19-6.2L-25.11,72.82A7.2,7.2,0,0,1-30.2,74.93Zm93-106.62a6.43,6.43,0,0,0-4.56,1.89l-93,93a6.41,6.41,0,0,0-1.89,4.56,6.37,6.37,0,0,0,1.89,4.56,6.45,6.45,0,0,0,9.12,0L26.25,20.41a5.13,5.13,0,0,1,7.25,7.25L11.59,49.58a6.45,6.45,0,1,0,9.12,9.12l14-14A5.13,5.13,0,0,1,42,51.93l-1.9,1.9A6.46,6.46,0,0,0,49.21,63l50.88-50.89a6.45,6.45,0,0,0-4.56-11A6.37,6.37,0,0,0,91,3l-8.63,8.63a5.13,5.13,0,0,1-7.25-7.26l71.24-71.25a6.45,6.45,0,0,0,0-9.12,6.46,6.46,0,0,0-9.12,0L73.86-12.7a5.11,5.11,0,0,1-3.63,1.51A5.11,5.11,0,0,1,66.6-12.7a5.1,5.1,0,0,1-1.5-3.62,5.14,5.14,0,0,1,1.5-3.63l.74-.73a6.45,6.45,0,0,0,1.89-4.56,6.43,6.43,0,0,0-1.89-4.56A6.43,6.43,0,0,0,62.77-31.69Z"/><path class="cls-1" d="M149.51,0h0a6.81,6.81,0,0,0-9.65,0l-8.63,8.63a4.77,4.77,0,0,1-6.73,0h0a4.77,4.77,0,0,1,0-6.73l19.6-19.59a6.83,6.83,0,0,0,0-9.65h0a6.81,6.81,0,0,0-9.65,0l-11.7,11.69a4.76,4.76,0,0,1-6.73,0h0a4.76,4.76,0,0,1,0-6.72l.73-.73a6.81,6.81,0,0,0,0-9.65h0a6.81,6.81,0,0,0-9.65,0L56.22,18.11a6.81,6.81,0,0,0,0,9.65h0a6.81,6.81,0,0,0,9.65,0l9.8-9.8a4.76,4.76,0,0,1,6.72,0h0a4.76,4.76,0,0,1,0,6.73L34.06,73a6.81,6.81,0,0,0,0,9.65h0a6.83,6.83,0,0,0,9.65,0L84.15,42.24a4.74,4.74,0,0,1,6.72,0h0a4.74,4.74,0,0,1,0,6.72L89,50.86a6.83,6.83,0,0,0,0,9.65h0a6.81,6.81,0,0,0,9.65,0L149.51,9.63A6.83,6.83,0,0,0,149.51,0Z"/><path class="cls-1" d="M81.18,77.75a7.23,7.23,0,1,1,0-10.23A7.22,7.22,0,0,1,81.18,77.75Z"/><path class="cls-3" d="M149.51,0a6.81,6.81,0,0,0-9.65,0l-8.63,8.63a4.76,4.76,0,0,1-6.73-6.73l19.6-19.59a6.83,6.83,0,0,0,0-9.65h0a6.81,6.81,0,0,0-9.65,0l-11.7,11.69a4.73,4.73,0,0,1-3.53,1.39L91.93,13a6.82,6.82,0,1,0,9.65,9.65l9.79-9.8a4.76,4.76,0,0,1,6.73,6.73L97.34,40.35A6.82,6.82,0,1,0,107,50l12.86-12.86a4.75,4.75,0,0,1,3.54-1.39L149.51,9.63A6.83,6.83,0,0,0,149.51,0Z"/><circle class="cls-4" cx="42.25" cy="237.59" r="7.24"/><path class="cls-2" d="M21.87,155.75h0a6.81,6.81,0,0,0-9.65,0l-8.63,8.63a4.76,4.76,0,0,1-6.72,0h0a4.76,4.76,0,0,1,0-6.73l45.81-45.81a6.83,6.83,0,0,0,0-9.65h0a6.81,6.81,0,0,0-9.65,0L-4.89,140.1a4.74,4.74,0,0,1-6.72,0h0a4.74,4.74,0,0,1,0-6.72L5.48,116.29a6.83,6.83,0,0,0,0-9.65h0a6.81,6.81,0,0,0-9.65,0l-126,126a6.83,6.83,0,0,0,0,9.65h0a6.84,6.84,0,0,0,9.66,0L-52,173.73a4.77,4.77,0,0,1,6.73,0h0a4.77,4.77,0,0,1,0,6.73L-93.58,228.8a6.83,6.83,0,0,0,0,9.65h0a6.83,6.83,0,0,0,9.65,0L-43.49,198a4.76,4.76,0,0,1,6.73,0h0a4.76,4.76,0,0,1,0,6.72l-1.9,1.9a6.81,6.81,0,0,0,0,9.65h0a6.81,6.81,0,0,0,9.65,0L21.87,165.4A6.81,6.81,0,0,0,21.87,155.75Z"/><circle class="cls-6" cx="50.58" cy="94.29" r="7.24"/><path class="cls-6" d="M21.87,155.75a6.81,6.81,0,0,0-9.65,0l-8.63,8.63a4.76,4.76,0,0,1-6.72-6.73l45.81-45.81a6.83,6.83,0,0,0,0-9.65h0a6.81,6.81,0,0,0-9.65,0L-4.89,140.1a4.77,4.77,0,0,1-3.53,1.39l-27.29,27.29a6.83,6.83,0,0,0,0,9.65,6.83,6.83,0,0,0,9.65,0l9.8-9.8a4.76,4.76,0,0,1,6.72,0,4.76,4.76,0,0,1,0,6.73L-30.3,196.12a6.83,6.83,0,0,0,0,9.65,6.81,6.81,0,0,0,9.65,0l12.87-12.86a4.73,4.73,0,0,1,3.53-1.39L21.87,165.4A6.81,6.81,0,0,0,21.87,155.75Z"/><path class="cls-4" d="M92.68,78.84H89.87V76a1.41,1.41,0,0,0-2.82,0v2.81H84.24a1.41,1.41,0,0,0,0,2.81h2.81v2.81a1.41,1.41,0,0,0,2.82,0V81.65h2.81a1.41,1.41,0,1,0,0-2.81Z"/><path class="cls-1" d="M49.49,133.84H46.68V131a1.41,1.41,0,1,0-2.81,0v2.81H41.05a1.41,1.41,0,0,0,0,2.81h2.82v2.81a1.41,1.41,0,1,0,2.81,0v-2.81h2.81a1.41,1.41,0,1,0,0-2.81Z"/><path class="cls-4" d="M55.12.84H52.3V-2a1.41,1.41,0,0,0-1.4-1.41A1.41,1.41,0,0,0,49.49-2V.84H46.68a1.41,1.41,0,1,0,0,2.81h2.81V6.46a1.41,1.41,0,1,0,2.81,0V3.65h2.82a1.41,1.41,0,0,0,0-2.81Z"/><path class="cls-7" d="M107.58,83.93h0a12.5,12.5,0,0,1-2-.16l.12-.73a13.5,13.5,0,0,0,1.9.14Zm2-.16L109.5,83a12.12,12.12,0,0,0,1.87-.45l.23.71A13.73,13.73,0,0,1,109.61,83.77Zm-6-.47a13,13,0,0,1-1.89-.78l.34-.66a12.55,12.55,0,0,0,1.78.73Zm9.92-.79-.34-.66a14.42,14.42,0,0,0,1.64-1l.44.6A13.54,13.54,0,0,1,113.48,82.51ZM99.93,81.45a12.15,12.15,0,0,1-1.55-1.32l.53-.53a10.83,10.83,0,0,0,1.46,1.25Zm16.84-1.34-.53-.52a13.48,13.48,0,0,0,1.25-1.47l.6.44A13,13,0,0,1,116.77,80.11ZM97.05,78.58A13.43,13.43,0,0,1,96,76.85l.67-.34a13.7,13.7,0,0,0,1,1.63Zm22.11-1.76-.66-.33a12.34,12.34,0,0,0,.73-1.78l.71.23A13.32,13.32,0,0,1,119.16,76.82ZM95.2,75a13.29,13.29,0,0,1-.48-2l.74-.12a12.12,12.12,0,0,0,.45,1.87Zm25.22-2-.74-.11a12.32,12.32,0,0,0,.15-1.92l.74,0v0A13.77,13.77,0,0,1,120.42,73ZM94.56,71v0a13.5,13.5,0,0,1,.15-2l.74.12a11.94,11.94,0,0,0-.15,1.89Zm25.11-2a12.12,12.12,0,0,0-.45-1.87l.71-.23a13.29,13.29,0,0,1,.48,2ZM95.89,67.16l-.71-.23A13,13,0,0,1,96,65l.66.34A12.55,12.55,0,0,0,95.89,67.16Zm22.58-1.85a11.36,11.36,0,0,0-1-1.63l.6-.44A12.78,12.78,0,0,1,119.13,65ZM97.63,63.74,97,63.3a14.13,14.13,0,0,1,1.32-1.56l.53.53A11.62,11.62,0,0,0,97.63,63.74Zm18.58-1.52A13.48,13.48,0,0,0,114.74,61l.44-.6a13,13,0,0,1,1.55,1.32ZM100.33,61l-.44-.61a12.89,12.89,0,0,1,1.74-1.07L102,60A12,12,0,0,0,100.33,61ZM113.1,60a12.55,12.55,0,0,0-1.78-.73l.22-.71a12.52,12.52,0,0,1,1.89.78Zm-9.36-.71-.23-.7a12.16,12.16,0,0,1,2-.48l.12.73A13.39,13.39,0,0,0,103.74,59.26Zm5.71-.46a11.85,11.85,0,0,0-1.89-.14l0-.75h0a13.27,13.27,0,0,1,2,.15Z"/><path class="cls-4" d="M15,80.57h0a5.55,5.55,0,0,1-2.06-.4l.29-.69a4.61,4.61,0,0,0,1.77.34ZM17,80.15l-.28-.68a4.8,4.8,0,0,0,1.51-1l.52.53A5.18,5.18,0,0,1,17,80.15ZM11.13,79A5.26,5.26,0,0,1,10,77.26l.69-.29a4.61,4.61,0,0,0,1,1.5Zm8.8-1.77-.69-.29a4.49,4.49,0,0,0,.36-1.78l.53,0,.21,0A5.45,5.45,0,0,1,19.93,77.23Zm-10.24-2H9.53a5.32,5.32,0,0,1,.4-2.06l.69.29a4.52,4.52,0,0,0-.35,1.75Zm9.53-1.85a4.75,4.75,0,0,0-1-1.5l.52-.53A5.45,5.45,0,0,1,19.91,73Zm-7.6-1.44-.53-.52a5.34,5.34,0,0,1,1.74-1.19l.29.69A4.54,4.54,0,0,0,11.62,71.89Zm5.06-1a4.5,4.5,0,0,0-1.74-.34l0-.53,0-.21h0a5.37,5.37,0,0,1,2,.39Z"/><path class="cls-4" d="M3,6.93H3a5.31,5.31,0,0,1-2-.4l.28-.69A4.66,4.66,0,0,0,3,6.19ZM5,6.52l-.29-.69a4.55,4.55,0,0,0,1.51-1l.53.53A5.33,5.33,0,0,1,5,6.52ZM-.85,5.37A5.43,5.43,0,0,1-2,3.62l.68-.29a4.69,4.69,0,0,0,1,1.51ZM8,3.59l-.69-.28a4.74,4.74,0,0,0,.35-1.78l.53,0,.22,0A5.4,5.4,0,0,1,8,3.59Zm-10.41-2v0a5.45,5.45,0,0,1,.4-2l.69.28A4.6,4.6,0,0,0-1.7,1.53ZM7.25-.3a4.57,4.57,0,0,0-1-1.5l.52-.54A5.64,5.64,0,0,1,7.94-.6ZM-.36-1.74l-.53-.53A5.42,5.42,0,0,1,.85-3.45l.29.68A4.67,4.67,0,0,0-.36-1.74ZM4.7-2.8A4.68,4.68,0,0,0,3-3.13l0-.75H3a5.34,5.34,0,0,1,2,.39Z"/><path class="cls-1" d="M17.6,106.18a9.1,9.1,0,0,1-1.05-.07l.08-.74a8.11,8.11,0,0,0,2,0l.09.74A9.81,9.81,0,0,1,17.6,106.18Zm-3.14-.58a8.59,8.59,0,0,1-1.9-1L13,104a8.32,8.32,0,0,0,1.75.91Zm6.31,0-.27-.7a7.63,7.63,0,0,0,1.74-.92l.43.62A9.57,9.57,0,0,1,20.77,105.6ZM11,103.19a8.92,8.92,0,0,1-1.22-1.76l.66-.35a8.51,8.51,0,0,0,1.12,1.62Zm13.32,0-.56-.49a8.21,8.21,0,0,0,1.12-1.62l.66.35A9.36,9.36,0,0,1,24.27,103.17ZM9,99.43A8.94,8.94,0,0,1,8.7,97.3h.75a8,8,0,0,0,.24,2Zm17.28,0-.73-.17a8,8,0,0,0,.24-2l.55,0h.19A9,9,0,0,1,26.25,99.4ZM9.68,95.35,9,95.17a9.23,9.23,0,0,1,.76-2l.66.35A8,8,0,0,0,9.68,95.35Zm15.83-.07a8,8,0,0,0-.71-1.83l.66-.35a8.36,8.36,0,0,1,.77,2Zm-14-3.39-.56-.49A8.71,8.71,0,0,1,12.52,90l.43.61A8.35,8.35,0,0,0,11.48,91.89Zm12.2,0a8.31,8.31,0,0,0-1.48-1.3l.42-.61a8.36,8.36,0,0,1,1.61,1.41Zm-9-2.18L14.41,89a8.35,8.35,0,0,1,2.08-.52l.1.73A8.76,8.76,0,0,0,14.68,89.66Zm5.78,0a7.83,7.83,0,0,0-1.91-.46l.09-.74a8.77,8.77,0,0,1,2.08.5Z"/></svg>